<svg width="1440" height="700" viewBox="0 0 1440 700" fill="none" xmlns="http://www.w3.org/2000/svg">
  <rect width="1440" height="700" fill="#FFFFFF"/>

  <!-- Header -->
  <text x="120" y="110"
    fill="#0F1720"
    font-family="Inter, Arial, sans-serif"
    font-size="14"
    font-weight="600"
    letter-spacing="2.8">
    C�MO FUNCIONA
  </text>

  <text x="120" y="178"
    fill="#0B0B0B"
    font-family="Inter, Arial, sans-serif"
    font-size="52"
    font-weight="700">
    <tspan x="120" dy="0">Un proceso claro, r�pido</tspan>
    <tspan x="120" dy="62">y validado por especialistas.</tspan>
  </text>

  <text x="120" y="278"
    fill="#4B5563"
    font-family="Inter, Arial, sans-serif"
    font-size="24"
    font-weight="400">
    <tspan x="120" dy="0">Desde la agenda hasta la entrega del informe, cada etapa est�</tspan>
    <tspan x="120" dy="34">pensada para darte claridad antes de tomar una decisi�n.</tspan>
  </text>

  <!-- Connector line -->
  <line x1="240" y1="420" x2="1200" y2="420" stroke="#DCE3EE" stroke-width="3"/>

  <!-- Step 1 -->
  <g>
    <circle cx="240" cy="420" r="18" fill="#1E3A8A"/>
    <circle cx="240" cy="420" r="42" fill="#EEF4FF"/>
    <text x="240" y="426"
      text-anchor="middle"
      fill="#1E3A8A"
      font-family="Inter, Arial, sans-serif"
      font-size="18"
      font-weight="700">
      1
    </text>

    <rect x="150" y="470" width="180" height="150" rx="22" fill="#F8FAFC" stroke="#E5E7EB"/>
    <rect x="172" y="494" width="44" height="44" rx="12" fill="#EEF4FF"/>
    <rect x="183" y="506" width="22" height="18" rx="4" stroke="#5B8DEF" stroke-width="2.4"/>
    <path d="M186 499H202" stroke="#5B8DEF" stroke-width="2.4" stroke-linecap="round"/>

    <text x="172" y="570"
      fill="#0B0B0B"
      font-family="Inter, Arial, sans-serif"
      font-size="24"
      font-weight="700">
      Agenda
    </text>
    <text x="172" y="606"
      fill="#4B5563"
      font-family="Inter, Arial, sans-serif"
      font-size="18"
      font-weight="400">
      <tspan x="172" dy="0">Coordinamos fecha,</tspan>
      <tspan x="172" dy="28">lugar y alcance.</tspan>
    </text>
  </g>

  <!-- Step 2 -->
  <g>
    <circle cx="560" cy="420" r="18" fill="#1E3A8A"/>
    <circle cx="560" cy="420" r="42" fill="#EEF4FF"/>
    <text x="560" y="426"
      text-anchor="middle"
      fill="#1E3A8A"
      font-family="Inter, Arial, sans-serif"
      font-size="18"
      font-weight="700">
      2
    </text>

    <rect x="470" y="470" width="180" height="150" rx="22" fill="#F8FAFC" stroke="#E5E7EB"/>
    <rect x="492" y="494" width="44" height="44" rx="12" fill="#EEF4FF"/>
    <path d="M504 526V504L524 515V526" stroke="#5B8DEF" stroke-width="2.4" stroke-linecap="round" stroke-linejoin="round"/>
    <rect x="500" y="510" width="28" height="18" rx="4" stroke="#5B8DEF" stroke-width="2.4"/>

    <text x="492" y="570"
      fill="#0B0B0B"
      font-family="Inter, Arial, sans-serif"
      font-size="24"
      font-weight="700">
      Inspecci�n
    </text>
    <text x="492" y="606"
      fill="#4B5563"
      font-family="Inter, Arial, sans-serif"
      font-size="18"
      font-weight="400">
      <tspan x="492" dy="0">Visitamos la propiedad</tspan>
      <tspan x="492" dy="28">y registramos hallazgos.</tspan>
    </text>
  </g>

  <!-- Step 3 -->
  <g>
    <circle cx="880" cy="420" r="18" fill="#1E3A8A"/>
    <circle cx="880" cy="420" r="42" fill="#EEF4FF"/>
    <text x="880" y="426"
      text-anchor="middle"
      fill="#1E3A8A"
      font-family="Inter, Arial, sans-serif"
      font-size="18"
      font-weight="700">
      3
    </text>

    <rect x="790" y="470" width="180" height="150" rx="22" fill="#F8FAFC" stroke="#E5E7EB"/>
    <rect x="812" y="494" width="44" height="44" rx="12" fill="#EEF4FF"/>
    <path d="M823 524L832 515L840 521L848 509" stroke="#5B8DEF" stroke-width="2.4" stroke-linecap="round" stroke-linejoin="round"/>
    <path d="M822 504H846" stroke="#5B8DEF" stroke-width="2.2" stroke-linecap="round" opacity="0.7"/>

    <text x="812" y="570"
      fill="#0B0B0B"
      font-family="Inter, Arial, sans-serif"
      font-size="24"
      font-weight="700">
      An�lisis
    </text>
    <text x="812" y="606"
      fill="#4B5563"
      font-family="Inter, Arial, sans-serif"
      font-size="18"
      font-weight="400">
      <tspan x="812" dy="0">Ordenamos y revisamos</tspan>
      <tspan x="812" dy="28">cada observaci�n.</tspan>
    </text>
  </g>

  <!-- Step 4 -->
  <g>
    <circle cx="1200" cy="420" r="18" fill="#1E3A8A"/>
    <circle cx="1200" cy="420" r="42" fill="#EEF4FF"/>
    <text x="1200" y="426"
      text-anchor="middle"
      fill="#1E3A8A"
      font-family="Inter, Arial, sans-serif"
      font-size="18"
      font-weight="700">
      4
    </text>

    <rect x="1110" y="470" width="180" height="150" rx="22" fill="#F8FAFC" stroke="#E5E7EB"/>
    <rect x="1132" y="494" width="44" height="44" rx="12" fill="#EEF4FF"/>
    <rect x="1143" y="504" width="22" height="26" rx="4" stroke="#5B8DEF" stroke-width="2.4"/>
    <path d="M1148 512H1160" stroke="#5B8DEF" stroke-width="2.2" stroke-linecap="round"/>
    <path d="M1148 519H1158" stroke="#5B8DEF" stroke-width="2.2" stroke-linecap="round"/>

    <text x="1132" y="570"
      fill="#0B0B0B"
      font-family="Inter, Arial, sans-serif"
      font-size="24"
      font-weight="700">
      Informe
    </text>
    <text x="1132" y="606"
      fill="#4B5563"
      font-family="Inter, Arial, sans-serif"
      font-size="18"
      font-weight="400">
      <tspan x="1132" dy="0">Recibes un reporte claro,</tspan>
      <tspan x="1132" dy="28">firmado y validado.</tspan>
    </text>
  </g>
</svg>
